<svg xmlns="http://www.w3.org/2000/svg" viewBox="0 0 60.78 46.95"><defs><style>.cls-1{fstroke-miterlimit:10;stroke-width:2px;}</style></defs><title>Email</title><g id="Layer_2" data-name="Layer 2"><g id="Layer_1-2" data-name="Layer 1"><path class="cls-1" d="M30.4,1H53.76c4.06,0,6,2,6,6q0,16.53,0,33.05c0,3.78-2,5.84-5.73,5.84q-23.67,0-47.34,0C3,45.93,1,43.93,1,40.21Q1,23.46,1,6.71C1,3,3,1,6.73,1,14.62,1,22.51,1,30.4,1Zm-.26,3.21H6.94a6.33,6.33,0,0,0-1.38.06C4.31,4.54,4,5.41,5,6.31,11.7,13,18.43,19.78,25.22,26.46a7,7,0,0,0,10.08,0q10.17-10,20.22-20.22c1.32-1.33-.32-2-1.57-2C46,4.09,38.08,4.21,30.14,4.21ZM40.6,25.64c-3,3-5.65,6.24-10.34,6.27s-7.49-3.27-10.39-6.18c-.23.1-.35.11-.41.18L4.77,40.55c-.86.86-.32,1.4.44,1.75a4.31,4.31,0,0,0,1.66.17H53.71a1.77,1.77,0,0,0,.61,0c.58-.23,1.15-.51,1.72-.77a5.28,5.28,0,0,0-.78-1.47Q48.51,33.4,41.7,26.63C41.38,26.31,41,26,40.6,25.64Zm2.86-2.39,12.81,13V10.52ZM4.27,10.84V35.92L16.81,23.39Z"/></g></g></svg>