<svg xmlns="http://www.w3.org/2000/svg" viewBox="0 0 59.19 59.46"><defs><style>.cls-1{fill:#ea3d30;}</style></defs><title>Instagram</title><g id="Layer_2" data-name="Layer 2"><g id="Layer_1-2" data-name="Layer 1"><path class="cls-1" d="M.06,29.61C.06,25.08-.1,20.54.1,16,.37,9.85,3.46,5.28,8.76,2.18A16.14,16.14,0,0,1,17.08,0c8.78,0,17.56-.15,26.33.1a16.49,16.49,0,0,1,15.5,14.33,78,78,0,0,1,.27,8.79c0,6.35,0,12.71,0,19.07,0,7.85-6,15.35-13.73,16.56a63.73,63.73,0,0,1-9.38.46c-6.57.06-13.14.25-19.69-.08a17,17,0,0,1-16.29-15,18.79,18.79,0,0,1,0-2.49V29.61Zm5.5-.21H5.43c0,2.24,0,4.49,0,6.73s0,4.56.12,6.84a10.59,10.59,0,0,0,8.92,10.31,43.37,43.37,0,0,0,7.21.44c7.15,0,14.3,0,21.44-.22a10.5,10.5,0,0,0,10.29-9.07,49.94,49.94,0,0,0,.44-7.84Q53.8,26,53.55,15.38c-.11-4.61-4.26-9.33-8.85-9.7-4.94-.4-9.92-.47-14.88-.5-4.56,0-9.11.23-13.66.27A10.89,10.89,0,0,0,5.56,15.94C5.54,20.43,5.56,24.91,5.56,29.4Z"/><path class="cls-1" d="M14.29,29.33a15.3,15.3,0,1,1,14.76,15.6A15.28,15.28,0,0,1,14.29,29.33Zm15.58,10a9.88,9.88,0,1,0-10.14-8.95A9.83,9.83,0,0,0,29.87,39.33Z"/><path class="cls-1" d="M45.32,10.16A3.58,3.58,0,0,1,49,13.53a3.68,3.68,0,0,1-3.53,3.74,3.72,3.72,0,0,1-3.65-3.64A3.6,3.6,0,0,1,45.32,10.16Z"/></g></g></svg>