<svg xmlns="http://www.w3.org/2000/svg" viewBox="0 0 59.86 59.71"><defs><style>.cls-1{fill:#ea3d30;}</style></defs><title>LinkedIn</title><g id="Layer_2" data-name="Layer 2"><g id="Layer_1-2" data-name="Layer 1"><path class="cls-1" d="M59.79,29.93c0,6.19.23,12.47-.13,18.65-.23,3.88-1.9,7.64-5.41,9.58a13.27,13.27,0,0,1-6.34,1.49q-18,.12-36.08,0C4.66,59.6.13,55.09.07,47.89q-.15-18,0-36.07C.12,4.86,4.6.21,11.56.12Q30-.12,48.33.12c7,.1,11.27,4.71,11.36,11.77Q59.78,20.9,59.79,29.93ZM32.31,49.65V45.94c0-3.81-.06-7.63,0-11.44.06-2.79,1.51-4.59,4.38-4.86,3.13-.29,4.31,1.76,4.71,4.4a28.79,28.79,0,0,1,.13,4.16c0,3.77,0,7.55,0,11.35h8.88c0-6,.29-11.65-.08-17.27-.43-6.49-5-10.39-11.1-9.65-2.28.27-4.43,1.61-6.67,2.47-.71-1.6-2.31-2.14-4-2.19-.41,0-5.22.4-5.22.74v26ZM9.48,23.27v26.3H18V23.27Zm9.29-8.47c0-2.71-2-4.61-4.9-4.63s-5,1.84-5,4.53,1.89,4.57,4.88,4.57S18.74,17.52,18.77,14.8Z"/></g></g></svg>